# xmcd CD database file
#
# Track frame offsets:
#	150
#	3330
#	22127
#	40012
#	64145
#	82310
#	98465
#	125895
#	142963
#	161568
#	179615
#	199405
#
# Disc length: 2945 seconds
#
# Revision: 1
# Processed by: cddbd v1.5.2PL0 Copyright (c) Steve Scherf et al.
# Submitted via: CDex 1.70beta3
#
DISCID=a80b7f0c
DTITLE=サカナクション - DocumentaLy
DYEAR=2011
DGENRE=Rock
TTITLE0=RL
TTITLE1=アイデンティティー
TTITLE2=モノクロトウキョー
TTITLE3=ルーキー
TTITLE4=アンタレスと針
TTITLE5=仮面の街
TTITLE6=流線
TTITLE7=エンドレス
TTITLE8=DocumentaRy
TTITLE9=「バッハの旋律を夜に聴いたせいです。」
TTITLE10=years
TTITLE11=ドキュメント
EXTD=YEAR: 2011
EXTT0=
EXTT1=
EXTT2=
EXTT3=
EXTT4=
EXTT5=
EXTT6=
EXTT7=
EXTT8=
EXTT9=
EXTT10=
EXTT11=
PLAYORDER=
